<?xml version="1.0" encoding="utf-8"?>
<!-- Generator: Adobe Illustrator 16.0.0, SVG Export Plug-In . SVG Version: 6.00 Build 0)  -->
<!DOCTYPE svg PUBLIC "-//W3C//DTD SVG 1.1//EN" "http://www.w3.org/Graphics/SVG/1.1/DTD/svg11.dtd">
<svg version="1.1" id="Layer_1" xmlns="http://www.w3.org/2000/svg" xmlns:xlink="http://www.w3.org/1999/xlink" x="0px" y="0px"
	 width="52.174px" height="48.696px" viewBox="0 0 52.174 48.696" enable-background="new 0 0 52.174 48.696" xml:space="preserve">
<g>
	<g>
		<defs>
			<rect id="SVGID_1_" x="3.015" y="6.587" width="46.551" height="40.731"/>
		</defs>
		<clipPath id="SVGID_2_">
			<use xlink:href="#SVGID_1_"  overflow="visible"/>
		</clipPath>
		<path clip-path="url(#SVGID_2_)" d="M34.144,28.348c-2.095-3.268-5.662-5.219-9.544-5.219c-3.879,0-7.447,1.951-9.542,5.219
			l-5.047,7.875c-0.839,1.307-1.224,2.816-1.12,4.363c0.108,1.549,0.697,2.991,1.706,4.172c1.008,1.18,2.341,1.985,3.854,2.332
			c1.514,0.345,3.065,0.198,4.487-0.427l0.095-0.043c3.576-1.54,7.662-1.526,11.229,0.043c0.921,0.403,1.896,0.609,2.881,0.609
			c0.533,0,1.071-0.061,1.604-0.183c1.514-0.346,2.848-1.152,3.855-2.332c1.011-1.18,1.6-2.622,1.705-4.17
			c0.107-1.549-0.281-3.059-1.117-4.365L34.144,28.348z M34.144,28.348"/>
		<path clip-path="url(#SVGID_2_)" d="M11.369,28.339c1.502-0.578,2.643-1.788,3.212-3.409c0.543-1.542,0.498-3.283-0.125-4.902
			c-0.624-1.619-1.758-2.94-3.194-3.721c-1.508-0.82-3.167-0.953-4.667-0.375c-3.014,1.16-4.398,4.886-3.085,8.31
			c1.053,2.725,3.501,4.446,5.979,4.446C10.123,28.688,10.756,28.574,11.369,28.339L11.369,28.339z M11.369,28.339"/>
	</g>
	<path d="M21.163,22.169c3.771,0,6.838-3.495,6.838-7.79c0-4.297-3.066-7.792-6.838-7.792c-3.771,0-6.837,3.495-6.837,7.792
		C14.326,18.674,17.393,22.169,21.163,22.169L21.163,22.169z M21.163,22.169"/>
	<g>
		<defs>
			<rect id="SVGID_3_" x="3.015" y="6.587" width="46.551" height="40.731"/>
		</defs>
		<clipPath id="SVGID_4_">
			<use xlink:href="#SVGID_3_"  overflow="visible"/>
		</clipPath>
		<path clip-path="url(#SVGID_4_)" d="M32.974,24.083L32.974,24.083c0.58,0.193,1.171,0.285,1.761,0.285
			c2.749,0,5.428-2.002,6.451-5.077c0.589-1.771,0.551-3.642-0.109-5.271c-0.69-1.705-1.969-2.942-3.599-3.485
			c-1.632-0.542-3.398-0.315-4.97,0.637c-1.504,0.91-2.656,2.386-3.244,4.157C28.023,19.063,29.687,22.991,32.974,24.083
			L32.974,24.083z M32.974,24.083"/>
		<path clip-path="url(#SVGID_4_)" d="M47.373,23.174L47.373,23.174c-2.602-1.922-6.489-1.09-8.671,1.855
			c-2.178,2.947-1.838,6.907,0.76,8.83c0.945,0.702,2.063,1.035,3.209,1.035c1.995,0,4.072-1.018,5.46-2.89
			C50.308,29.058,49.968,25.097,47.373,23.174L47.373,23.174z M47.373,23.174"/>
	</g>
</g>
</svg>
